<?xml version="1.0" encoding="UTF-8"?>
<!DOCTYPE svg PUBLIC "-//W3C//DTD SVG 1.1//EN" "http://www.w3.org/Graphics/SVG/1.1/DTD/svg11.dtd">
<!-- Creator: CorelDRAW -->
<svg xmlns="http://www.w3.org/2000/svg" xml:space="preserve" width="119.626mm" height="36.1362mm" version="1.1" style="shape-rendering:geometricPrecision; text-rendering:geometricPrecision; image-rendering:optimizeQuality; fill-rule:evenodd; clip-rule:evenodd"
viewBox="0 0 11962.56 3613.62"
 xmlns:xlink="http://www.w3.org/1999/xlink"
 xmlns:xodm="http://www.corel.com/coreldraw/odm/2003">
 <defs>
  <style type="text/css">
   <![CDATA[
    .fil0 {fill:#FEFEFE}
   ]]>
  </style>
 </defs>
 <g id="Layer_x0020_1">
  <metadata id="CorelCorpID_0Corel-Layer"/>
  <path class="fil0" d="M11955.43 734.56l-205.97 0 -203.08 1332.99 -191.65 -1255.76c-11.45,-65.8 -45.77,-77.23 -60.09,-77.23l-157.33 0 286.05 1862.17c2.87,17.18 20.03,140.18 123.02,140.18l14.3 0 88.67 0 306.08 -2002.35zm-2128.22 1799.24l0 -695.1c0,-25.73 22.88,-48.62 48.63,-48.62l85.81 0c65.8,0 94.39,-28.59 108.7,-54.34 8.57,-17.16 42.91,-100.13 65.8,-151.6l-308.94 0 0 -595c0,-28.61 20.02,-48.63 48.63,-48.63l165.9 0c65.8,0 97.27,-31.46 108.7,-57.21l68.66 -148.74 -534.93 0c-34.32,0 -60.07,25.75 -62.93,57.2l0 1945.15 457.68 0c65.8,0 97.27,-28.62 111.57,-54.36 8.59,-17.16 42.9,-97.25 65.79,-148.75l-429.07 0zm-1567.55 -105.83c0,77.24 -51.5,105.83 -108.7,105.83l-134.45 0 0 -1593.29 134.45 0c57.2,0 108.7,28.61 108.7,102.99l0 1384.47zm-449.09 -1693.41l0 2002.35 397.59 0c140.18,0 251.74,-111.57 254.6,-251.72l0 -1498.91c-2.86,-140.16 -114.42,-251.72 -254.6,-251.72l-397.59 0zm-1230.04 815.24c-5.7,54.36 -51.48,97.26 -108.7,97.26l-108.7 0 0 -720.85 108.7 0c57.22,0 103,42.91 108.7,97.25l0 526.34zm-420.48 -815.24l0 1959.44c0,14.29 8.57,42.91 57.2,42.91l145.88 0 0 -898.21 123.02 0c197.37,0 291.76,-140.14 291.76,-334.67l0 -517.75c0,-140.16 -123,-251.72 -260.31,-251.72l-357.55 0zm-1135.61 1284.36c-51.5,22.88 -131.59,57.2 -148.75,65.79 -25.74,14.29 -54.36,45.77 -54.36,111.56l0 268.88c0,62.95 -48.61,111.56 -111.56,111.56 -60.06,0 -108.7,-48.61 -108.7,-111.56l0 -1461.71c0,-60.07 48.64,-108.7 108.7,-108.7 62.95,0 111.56,48.63 111.56,108.7l0 449.11 148.77 -68.65c25.73,-11.46 54.34,-42.91 54.34,-108.7l0 -306.08c0,-137.31 -108.7,-251.74 -246.01,-254.58l-125.86 0c-143.02,0 -257.45,114.41 -257.45,254.58l0 1533.23c0,140.15 114.43,254.58 257.45,254.58l125.86 0c137.31,-5.73 246.01,-117.29 246.01,-254.58l0 -483.43z"/>
  <path class="fil0" d="M1231.42 2268.18l1195.04 -1122.53c-96.2,-108.99 -334.09,-175.55 -495.28,-174.5 -215.18,1.4 -407.6,62.44 -581.21,226.12 -324.14,305.59 -321.88,700.23 -118.55,1070.91zm-1235.44 1345.97c376.07,-155.34 1695.7,-1428.56 2051.06,-1759.12 604.69,-562.43 1345.09,-1239.53 1809.48,-1842.83 -46.52,-15.41 -1.99,-16.46 -53.11,2.3l-117.54 93.25c-286.07,247.88 -740.31,602.74 -1135.06,448.08l-166.98 -67.83c-152.68,-51.1 -179.42,-66.73 -353.33,-78.39 -132.23,-8.87 -244.83,-7.93 -385.98,20.95 -812.17,166.16 -1339.22,1005.51 -1028.44,1869.34 154.4,429.19 -109.77,704.92 -380.66,1008.91 -42.82,48.03 -87.57,96.47 -130.93,145.54l-92.1 102.65c-28.8,50.03 -17.54,-0.37 -16.41,57.15zm1566.47 -994.38c-115.1,72.04 -250.3,203.63 -266.59,428.64 81.74,39.87 162.94,71.03 229.13,95.04l351.32 51.18c381.23,-2.94 695.97,-97.04 1003.24,-380.08 107.75,-99.29 231.94,-263.72 281.53,-373.89 82.5,-183.29 101.9,-213.05 140.95,-431.77 32.75,-183.45 8.3,-506.31 -98.12,-767.17 -250.94,37.39 -372.26,208.46 -429.13,339.06 57.41,212.88 50.63,425.44 -60.55,620.82 -274.38,482.13 -795.9,582.6 -1151.78,418.17z"/>
 </g>
</svg>
