<?xml version="1.0" encoding="UTF-8"?>
<!DOCTYPE svg PUBLIC "-//W3C//DTD SVG 1.1//EN" "http://www.w3.org/Graphics/SVG/1.1/DTD/svg11.dtd">
<!-- Creator: CorelDRAW -->
<svg xmlns="http://www.w3.org/2000/svg" xml:space="preserve" width="63.5108mm" height="19.1852mm" version="1.1" style="shape-rendering:geometricPrecision; text-rendering:geometricPrecision; image-rendering:optimizeQuality; fill-rule:evenodd; clip-rule:evenodd"
viewBox="0 0 6351.08 1918.52"
 xmlns:xlink="http://www.w3.org/1999/xlink"
 xmlns:xodm="http://www.corel.com/coreldraw/odm/2003">
 <defs>
  <style type="text/css">
   <![CDATA[
    .fil0 {fill:#FEFEFE}
   ]]>
  </style>
 </defs>
 <g id="Layer_x0020_1">
  <metadata id="CorelCorpID_0Corel-Layer"/>
  <path class="fil0" d="M-5.47 1919.05c199.66,-82.47 900.27,-758.44 1088.93,-933.94 321.04,-298.6 714.13,-658.08 960.68,-978.38 -24.7,-8.18 -1.06,-8.74 -28.2,1.22l-62.4 49.51c-151.88,131.6 -393.04,320 -602.62,237.89l-88.65 -36.01c-81.06,-27.13 -95.26,-35.43 -187.59,-41.62 -70.2,-4.71 -129.98,-4.21 -204.92,11.12 -431.19,88.22 -711.01,533.84 -546.01,992.46 81.97,227.86 -58.28,374.25 -202.1,535.64 -22.73,25.5 -46.49,51.22 -69.51,77.27l-48.9 54.5c-15.29,26.56 -9.31,-0.2 -8.71,30.34zm655.91 -714.59l634.46 -595.97c-51.07,-57.86 -177.37,-93.2 -262.95,-92.64 -114.24,0.74 -216.4,33.15 -308.57,120.05 -172.09,162.24 -170.89,371.76 -62.94,568.56zm772.94 -489.38c72.07,153.14 95.06,312.12 14.3,454.03 -166.47,292.51 -504.28,320.41 -686.4,176.2l-204.04 182.54c73,69.68 184.14,114.12 259.06,141.3l186.52 27.17c202.4,-1.56 369.5,-51.52 532.63,-201.79 57.21,-52.71 123.14,-140.01 149.47,-198.5 43.8,-97.31 54.1,-113.11 74.83,-229.23 23.72,-132.85 -9.07,-403.39 -131.7,-540.28l-194.67 188.56zm1240.82 357.04c-27.34,12.15 -69.86,30.37 -78.97,34.93 -13.67,7.59 -28.86,24.3 -28.86,59.23l0 142.75c0,33.42 -25.81,59.23 -59.23,59.23 -31.89,0 -57.71,-25.81 -57.71,-59.23l0 -776.04c0,-31.89 25.82,-57.71 57.71,-57.71 33.42,0 59.23,25.82 59.23,57.71l0 238.44 78.98 -36.45c13.66,-6.08 28.85,-22.78 28.85,-57.71l0 -162.5c0,-72.9 -57.71,-133.65 -130.61,-135.16l-66.82 0c-75.93,0 -136.68,60.74 -136.68,135.16l0 814.01c0,74.41 60.75,135.16 136.68,135.16l66.82 0c72.9,-3.04 130.61,-62.27 130.61,-135.16l0 -256.66zm602.91 -681.88l0 1040.29c0,7.59 4.55,22.78 30.37,22.78l77.45 0 0 -476.87 65.31 0c104.79,0 154.9,-74.4 154.9,-177.68l0 -274.88c0,-74.41 -65.3,-133.64 -138.2,-133.64l-189.83 0zm223.24 432.82c-3.03,28.86 -27.33,51.64 -57.71,51.64l-57.71 0 0 -382.71 57.71 0c30.38,0 54.68,22.78 57.71,51.63l0 279.44zm653.04 -432.82l0 1063.07 211.09 0c74.42,0 133.65,-59.23 135.17,-133.64l0 -795.79c-1.52,-74.41 -60.75,-133.64 -135.17,-133.64l-211.09 0zm238.43 899.05c0,41.01 -27.34,56.19 -57.71,56.19l-71.38 0 0 -845.9 71.38 0c30.37,0 57.71,15.19 57.71,54.68l0 735.03zm832.23 56.19l0 -369.04c0,-13.66 12.15,-25.81 25.82,-25.81l45.56 0c34.93,0 50.11,-15.18 57.71,-28.85 4.55,-9.11 22.78,-53.16 34.93,-80.49l-164.02 0 0 -315.89c0,-15.19 10.63,-25.82 25.82,-25.82l88.08 0c34.93,0 51.64,-16.7 57.71,-30.37l36.45 -78.97 -284 0c-18.22,0 -31.89,13.67 -33.41,30.37l0 1032.7 242.99 0c34.93,0 51.64,-15.19 59.23,-28.86 4.56,-9.11 22.78,-51.63 34.93,-78.97l-227.8 0zm1129.9 -955.24l-109.35 0 -107.82 707.7 -101.75 -666.7c-6.08,-34.93 -24.3,-41 -31.9,-41l-83.53 0 151.87 988.65c1.52,9.12 10.63,74.42 65.31,74.42l7.59 0 47.08 0 162.5 -1063.07z"/>
 </g>
</svg>
